# xmcd
#
# Track frame offsets:
#	150
#	20169
#	39369
#	57826
#	76247
#	94915
#	116396
#	135117
#	146975
#	162135
#	178920
#	197881
#
# Disc length: 2875 seconds
#
# Revision: 0
# Processed by: cddbd v1.5.2PL0 Copyright (c) Steve Scherf et al.
# Submitted via: EasyCDDAExtractor 9.0.0.1
#
DISCID=9f0b390c
DTITLE=ALBERTO ANGEL EL CUERVO - INTERPRETA A MARIA GREVER
DYEAR=1990
DGENRE=ANCHERASFolklore
TTITLE0=ASI
TTITLE1=TE QUIERO DIJISTE
TTITLE2=JURAME
TTITLE3=CUANDO VUELVA A TU LADO
TTITLE4=ALMA MIA
TTITLE5=POR SI NO TE VUELVO A VER
TTITLE6=VOLVERE
TTITLE7=TIPILIN
TTITLE8=DEVUELVEME MIL BESOS
TTITLE9=CUANDO ME VAYA
TTITLE10=YA NO ME QUIERES
TTITLE11=QUE DIRAS DE MI
EXTD=
EXTT0=
EXTT1=
EXTT2=
EXTT3=
EXTT4=
EXTT5=
EXTT6=
EXTT7=
EXTT8=
EXTT9=
EXTT10=
EXTT11=
PLAYORDER=
